# xmcd
#
# Track frame offsets:
#	150
#	19182
#	45852
#	65005
#	97515
#	112892
#	136362
#	156012
#	171462
#
# Disc length: 2617 seconds
#
# Revision: 1
# Processed by: cddbd v1.5.2PL0 Copyright (c) Steve Scherf et al.
# Submitted via: audiograbber 1.83.01
#
DISCID=670a3709
DTITLE=Blue Magic - Blue Magic
DYEAR=1900
DGENRE=Soul
TTITLE0=Sideshow
TTITLE1=Look Me Up
TTITLE2=What's Come Over Me
TTITLE3=Just Don't Want To  Be Lonley
TTITLE4=Stop To Start
TTITLE5=Welcome To The Club
TTITLE6=Spell
TTITLE7=Answer To My Prayer
TTITLE8=Tear It Down
EXTD=
EXTT0=
EXTT1=
EXTT2=
EXTT3=
EXTT4=
EXTT5=
EXTT6=
EXTT7=
EXTT8=
PLAYORDER=
